<svg xmlns="http://www.w3.org/2000/svg" fill="#25d366" viewBox="0 0 512 512">
  <path d="M256 0C114.62 0 0 114.62 0 256c0 45.38 12.02 89.22 34.77 128.02L0 512l133.45-34.31C171.64 499.98 213.55 512 256 512c141.38 0 256-114.62 256-256S397.38 0 256 0zm0 472c-38.43 0-76.14-10.29-108.85-29.77l-7.81-4.63-79.22 20.36 21.06-77.23-5.04-7.99C58.17 340.4 48 299.08 48 256 48 132.48 132.48 48 256 48s208 84.48 208 208-84.48 216-208 216z"/>
  <path d="M380.9 313.9c-5.8-2.9-34.2-16.9-39.5-18.8-5.3-1.9-9.1-2.9-13 2.9s-14.9 18.8-18.3 22.7c-3.3 3.8-6.7 4.3-12.5 1.4-34.2-17.1-56.5-30.5-79.2-68.9-6-10.3 6-9.5 17.1-31.6 1.9-3.8.9-7.1-.5-10s-13-31.3-17.8-42.9c-4.7-11.3-9.5-9.7-13-9.9-3.3-.2-7.1-.2-10.9-.2-3.8 0-10 1.4-15.3 7.1s-20.1 19.6-20.1 47.8 20.6 55.5 23.4 59.4c2.9 3.8 40.5 61.8 98.1 86.7 13.7 5.9 24.4 9.4 32.7 12 13.7 4.3 26.1 3.7 36 .2 11-4.1 34.2-13.9 39.1-27.3 4.8-13.4 4.8-24.9 3.3-36.2-1.4-1.9-5.6-3.8-11.4-6.7z"/>
</svg>
